
<svg xmlns="http://www.w3.org/2000/svg" xmlns:xlink="http://www.w3.org/1999/xlink" width="48" height="48" viewBox="0 0 48 48">
  <defs>
    <clipPath id="clip-path">
      <rect id="Rectangle_18479" data-name="Rectangle 18479" width="48" height="48" transform="translate(797.5 1449)" fill="#fff"/>
    </clipPath>
    <clipPath id="clip-path-2">
      <rect id="Rectangle_18403" data-name="Rectangle 18403" width="39.42" height="39.42" transform="translate(-0.391 -0.191)" fill="#fff"/>
    </clipPath>
  </defs>
  <g id="Mask_Group_15963" data-name="Mask Group 15963" transform="translate(-797.5 -1449)" clip-path="url(#clip-path)">
    <g id="Mask_Group_15938" data-name="Mask Group 15938" transform="translate(801.391 1453.191)" clip-path="url(#clip-path-2)">
      <g id="logo_amis" transform="translate(1.756 1.6)">
        <path id="XMLID_11_" d="M21.664,6.664,21.5,6.5a.161.161,0,0,1,.164.164Z" transform="translate(13.817 4.148)" fill="none"/>
        <path id="XMLID_10_" d="M19.241.326a15.1,15.1,0,0,0-11.492,2.3c-7.552,6.567.657,15.6.657,15.6l4.762-5.089c6.894-7.224,12.641-6.567,12.641-6.567a9.2,9.2,0,0,1,6.567,4.1l.164.164C28.927,1.968,19.241.326,19.241.326Z" transform="translate(2.942 -0.021)" fill="#00a551"/>
        <path id="XMLID_9_" d="M24.409,5.132a9.2,9.2,0,0,1,6.57,4.1C25.725.7,17.188,1.355,12.1,3.983,4.546,7.923,7.173,16.788,7.173,16.788l4.6-5.089C18.665,4.475,24.409,5.132,24.409,5.132Z" transform="translate(4.338 1.411)" fill="#85c340"/>
        <path id="XMLID_8_" d="M29.4,19.241c1.478-7.388-2.3-11.492-2.3-11.492-6.4-7.552-15.6.657-15.6.657l4.925,4.762c7.224,6.894,6.567,12.641,6.567,12.641a9.2,9.2,0,0,1-4.1,6.567l-.164.164C27.919,28.763,29.4,19.241,29.4,19.241Z" transform="translate(7.4 2.899)" fill="#be1e2d"/>
        <path id="XMLID_7_" d="M23.257,24.435A9.2,9.2,0,0,1,19.152,31c10.179-5.913,6.894-16.254,5.254-18.881C20.137,4.734,11.6,7.032,11.6,7.032l4.925,4.761C23.749,18.689,23.257,24.435,23.257,24.435Z" transform="translate(7.464 4.272)" fill="#ed2f46"/>
        <path id="XMLID_6_" d="M14.3,29.4a15.1,15.1,0,0,0,11.492-2.3c7.552-6.567-.655-15.6-.655-15.6l-4.761,5.089c-6.9,7.224-12.645,6.567-12.645,6.567a9.2,9.2,0,0,1-6.566-4.1L1,18.888C4.776,27.754,14.3,29.4,14.3,29.4Z" transform="translate(0.661 7.357)" fill="#f6921e"/>
        <path id="XMLID_5_" d="M7.667,23.157a9.2,9.2,0,0,1-6.567-4.1c7.388,11.492,18.881,5.254,18.881,5.254C27.532,20.2,25.07,11.5,25.07,11.5l-4.761,5.089C13.413,23.813,7.667,23.157,7.667,23.157Z" transform="translate(0.725 7.357)" fill="#faaf40"/>
        <path id="XMLID_4_" d="M.33,14.134A15.688,15.688,0,0,0,2.3,25.627c6.4,7.717,15.6-.328,15.6-.328l-4.928-4.762c-6.9-7.223-6.239-12.97-6.239-12.97A9.4,9.4,0,0,1,11,1h.164C2.136,4.448.33,14.134.33,14.134Z" transform="translate(0.017 0.618)" fill="#035b93"/>
        <path id="XMLID_3_" d="M5.232,7.567A9.4,9.4,0,0,1,9.5,1C-2.156,8.06,3.918,19.716,3.918,19.716c3.94,7.717,12.642,5.418,12.642,5.418l-4.925-4.761C4.578,13.313,5.232,7.567,5.232,7.567Z" transform="translate(1.518 0.618)" fill="#1b75bb"/>
      </g>
    </g>
  </g>
</svg>
