
<svg xmlns="http://www.w3.org/2000/svg" viewBox="0 0 56 56"><defs><style>.a{fill:none;}.b{fill:#00a551;}.c{fill:#85c340;}.d{fill:#be1e2d;}.e{fill:#ed2f46;}.f{fill:#f6921e;}.g{fill:#faaf40;}.h{fill:#035b93;}.i{fill:#1b75bb;}</style></defs><g transform="translate(0.041 -0.023)"><path class="a" d="M735.4,221.119s-.072-.116-.2-.319C735.265,220.909,735.338,221.018,735.4,221.119Z" transform="translate(-681.977 -204.766)"/><path class="b" d="M179,.522a22.982,22.982,0,0,0-17.285,3.4c-11.417,9.8,1.007,23.482,1.007,23.482l7.1-7.571c10.418-10.813,19.06-9.964,19.06-9.964,5.716.464,9.085,4.939,9.9,6.171.13.2.2.319.2.319C193.429,2.915,179,.522,179,.522Z" transform="translate(-145.559 0)"/><path class="c" d="M255.77,79.534c5.716.464,9.128,4.91,9.9,6.171-7.969-12.894-20.7-11.893-28.341-7.948-11.541,5.954-7.715,19.312-7.715,19.312l7.1-7.571C247.127,78.686,255.77,79.534,255.77,79.534Z" transform="translate(-212.457 -69.664)"/><path class="d" d="M423,176.881c2.123-11.11-3.347-17.31-3.347-17.31-9.766-11.465-23.458.928-23.458.928l7.542,7.129c10.773,10.465,9.9,19.109,9.9,19.109-.485,5.722-4.962,9.072-6.194,9.9-.2.131-.319.2-.319.2C420.563,191.32,423,176.881,423,176.881Z" transform="translate(-367.536 -143.464)"/><path class="e" d="M413.538,254.428a13.6,13.6,0,0,1-6.194,9.9c15.373-8.934,10.28-24.461,8.027-28.355-6.506-11.248-19.27-7.789-19.27-7.789l7.542,7.129C414.414,245.777,413.538,254.428,413.538,254.428Z" transform="translate(-367.443 -211.149)"/><path class="f" d="M54.78,421.669a22.974,22.974,0,0,0,17.285-3.387c11.425-9.8-.985-23.482-.985-23.482l-7.107,7.564c-10.425,10.805-19.068,9.95-19.068,9.95-5.716-.471-9.077-4.946-9.9-6.179-.13-.2-.2-.319-.2-.319C40.349,419.261,54.78,421.669,54.78,421.669Z" transform="translate(-32.317 -366.148)"/><path class="g" d="M47.5,412.313c-5.716-.471-9.077-4.946-9.9-6.179,11.033,17.412,28.348,7.97,28.348,7.97,11.425-6.171,7.73-19.3,7.73-19.3l-7.107,7.564C56.146,413.169,47.5,412.313,47.5,412.313Z" transform="translate(-34.914 -366.148)"/><path class="h" d="M.541,53.418A23.023,23.023,0,0,0,3.635,70.779c9.6,11.6,23.472-.587,23.472-.587l-7.433-7.237C9.053,52.338,10.053,43.7,10.053,43.7c.565-5.715,5.093-9,6.339-9.8.2-.131.319-.2.319-.2C3.193,39.016.541,53.418.541,53.418Z" transform="translate(0 -31.235)"/><path class="i" d="M82.014,46.2c.565-5.715,5.093-9,6.339-9.8-17.575,10.74-8.44,28.232-8.44,28.232C85.883,76.17,99.068,72.7,99.068,72.7l-7.433-7.237C81.014,54.842,82.014,46.2,82.014,46.2Z" transform="translate(-71.961 -33.739)"/></g></svg>